<svg xmlns="http://www.w3.org/2000/svg" version="1.1" xmlns:xlink="http://www.w3.org/1999/xlink" x="0" y="0" viewBox="0 0 100 100" xml:space="preserve">
  <g>
    <path fill-rule="evenodd"
      d="M19 43c0-11.598 9.402-21 21-21 6.658 0 12.593 3.1 16.439 7.93A16.977 16.977 0 0 1 62 29c8.162 0 14.978 5.75 16.622 13.421C85.302 45.211 90 51.805 90 59.5 90 69.717 81.717 78 71.5 78h-43C18.283 78 10 69.717 10 59.5c0-6.75 3.614-12.653 9.009-15.883A21.45 21.45 0 0 1 19 43zm26.823 2.172a1 1 0 0 1 .268 1.388c-1.556 2.302-3.696 3.583-5.96 3.583-2.263 0-4.403-1.28-5.96-3.583a1 1 0 1 1 1.657-1.12c1.278 1.888 2.853 2.703 4.304 2.703s3.026-.815 4.303-2.703a1 1 0 0 1 1.388-.268zm19.737 0a1 1 0 0 1 .268 1.388c-1.557 2.302-3.696 3.583-5.96 3.583s-4.403-1.28-5.96-3.583a1 1 0 1 1 1.657-1.12c1.277 1.888 2.853 2.703 4.303 2.703 1.451 0 3.026-.815 4.304-2.703a1 1 0 0 1 1.388-.268zM38.737 65.994C38.737 59.897 43.805 55 50 55s11.263 4.897 11.263 10.994c0 .507-.102 1.046-.453 1.48-.37.458-.88.631-1.335.674-.436.041-.898-.027-1.327-.125-.44-.1-.918-.247-1.407-.409a95.55 95.55 0 0 1-.886-.3h-.002C54.046 66.693 52.02 66 50 66s-4.046.693-5.853 1.312c-.302.104-.599.206-.889.301-.488.162-.966.31-1.406.41-.43.097-.89.165-1.327.124-.456-.043-.965-.216-1.335-.673-.351-.435-.453-.974-.453-1.481z"
      clip-rule="evenodd" opacity="1" data-original="#000000"></path>
  </g>
</svg>