<svg xmlns="http://www.w3.org/2000/svg" version="1.1" xmlns:xlink="http://www.w3.org/1999/xlink" x="0" y="0"
  viewBox="0 0 36 36" style="enable-background:new 0 0 512 512" xml:space="preserve" class="">
  <g>
    <path
      d="M29.04 13.189c.28-.77.43-1.58.43-2.41 0-3.81-3.1-6.92-6.91-6.92-2.31 0-4.46 1.16-5.73 3.04-.93-.52-1.98-.8-3.05-.8a6.29 6.29 0 0 0-6.28 6.28c0 .09 0 .18.01.27-3.1.34-5.51 2.97-5.51 6.15 0 3.42 2.78 6.19 6.19 6.19h.07l5.96-10.16a4.252 4.252 0 0 1 3.78-2.29c1.6 0 3.04.88 3.78 2.29l5.96 10.16h.31c3.28 0 5.95-2.67 5.95-5.95 0-2.94-2.15-5.38-4.96-5.85z"
      opacity="1" data-original="#000000" class=""></path>
    <path
      d="M20.03 15.794c-.836-1.67-3.22-1.67-4.056 0L8.307 28.861c-.753 1.507.343 3.28 2.028 3.28h15.333c1.685 0 2.781-1.773 2.028-3.28zm-3.031 4.772a1 1 0 1 1 2 0v4.236a1 1 0 1 1-2 0zm1.003 8.883a1.251 1.251 0 0 1 0-2.5 1.251 1.251 0 0 1 0 2.5z"
      opacity="1" data-original="#000000" class=""></path>
  </g>
</svg>